# xmcd
#
# Track frame offsets:
#	150
#	10369
#	22486
#	33349
#	47003
#	61434
#	72008
#	85596
#	99437
#	111541
#	122476
#	133383
#	146872
#	157043
#	167721
#	178646
#	190676
#	201446
#	212979
#	226609
#	239480
#	252741
#	264434
#	279024
#	292823
#	304450
#	319394
#	344534
#
# Disc length: 4707 seconds
#
# Revision: 1
# Processed by: cddbd v1.5.2PL0 Copyright (c) Steve Scherf et al.
# Submitted via: EasyCDDAExtractor 16.0.1.1
#
DISCID=b012611c
DTITLE=Jack Blanchard and Misty Morgan - Wired Scenes Inside The Birdhouse
DYEAR=1900
DGENRE=Country
TTITLE0=The Cockroach Stomp
TTITLE1=Carolina Sundown Red
TTITLE2=Down To The End Of The Wine
TTITLE3=Here Today And Gone Tomorrow
TTITLE4=Just One More Song
TTITLE5=Molasses In The Moonlight
TTITLE6=I'm High On You
TTITLE7=When The Blues Come In From The Rain
TTITLE8=Cows
TTITLE9=Something On Your Mind
TTITLE10=Because We Love
TTITLE11=The House (That Used To Be A Home)
TTITLE12=Why Did I Sleep So Long?
TTITLE13=Starvin' Hog Blues
TTITLE14=Let's Pretend
TTITLE15=47 Miles (To The Georgia Line)
TTITLE16=Hands
TTITLE17=Still Comin' Down
TTITLE18=I'll Go Home With You
TTITLE19=We've Still Got Each Other
TTITLE20=You Come So Easy To Me (Original)
TTITLE21=You Can't Say I Didn't Try
TTITLE22=Asleep In The Saddle
TTITLE23=Try
TTITLE24=Safe Harbour
TTITLE25=I Love You, I'm Sorry, Goodbye
TTITLE26=Motel Time
TTITLE27=Extra Trax
EXTD=
EXTT0=
EXTT1=
EXTT2=
EXTT3=
EXTT4=
EXTT5=
EXTT6=
EXTT7=
EXTT8=
EXTT9=
EXTT10=
EXTT11=
EXTT12=
EXTT13=
EXTT14=
EXTT15=
EXTT16=
EXTT17=
EXTT18=
EXTT19=
EXTT20=
EXTT21=
EXTT22=
EXTT23=
EXTT24=
EXTT25=
EXTT26=
EXTT27=
PLAYORDER=
